<?xml version="1.0" encoding="UTF-8"?><svg id="a" xmlns="http://www.w3.org/2000/svg" viewBox="0 0 351 149"><defs><style>.b{fill:#444;}.c{fill:#ff734c;}</style></defs><g><path class="b" d="M61.37,134.49c-2.33,2.53-5.02,4.58-8.09,6.14-3.07,1.57-6.32,2.55-9.76,2.96-2.64,.31-5.22,.27-7.74-.13-2.52-.4-4.93-1.1-7.21-2.1-2.28-1-4.4-2.28-6.37-3.83-1.97-1.55-3.7-3.32-5.21-5.31-1.51-1.99-2.74-4.16-3.72-6.52-.97-2.36-1.61-4.86-1.92-7.5s-.27-5.23,.13-7.76c.4-2.54,1.1-4.95,2.1-7.23,1-2.28,2.28-4.4,3.83-6.37,1.55-1.97,3.32-3.7,5.31-5.21,1.99-1.5,4.16-2.74,6.52-3.72,2.36-.97,4.86-1.61,7.5-1.92,3.44-.4,6.83-.21,10.18,.59,3.34,.8,6.44,2.17,9.29,4.12l-4.76,10.39c-1.84-1.57-3.92-2.69-6.26-3.37-2.34-.68-4.72-.88-7.15-.6s-4.7,1.02-6.74,2.21c-2.04,1.18-3.76,2.66-5.18,4.44-1.42,1.78-2.46,3.8-3.14,6.07-.68,2.27-.87,4.62-.59,7.05s1.02,4.66,2.2,6.68c1.18,2.02,2.67,3.74,4.46,5.16,1.79,1.42,3.82,2.46,6.07,3.14,2.26,.68,4.61,.87,7.07,.58s4.7-1.03,6.82-2.24c2.11-1.21,3.88-2.78,5.3-4.73l7.04,9.01Z"/><path class="b" d="M98.62,111.04c0,3.12-.56,6.04-1.68,8.73-1.12,2.7-2.64,5.03-4.57,6.99-1.93,1.97-4.19,3.52-6.78,4.65-2.59,1.13-5.37,1.7-8.34,1.7s-5.71-.57-8.3-1.7c-2.59-1.13-4.86-2.68-6.8-4.65-1.94-1.97-3.47-4.3-4.59-6.99-1.12-2.7-1.68-5.61-1.68-8.73s.56-6.12,1.68-8.83c1.12-2.71,2.65-5.04,4.59-7.01,1.94-1.97,4.21-3.51,6.8-4.63,2.59-1.12,5.36-1.68,8.3-1.68s5.75,.53,8.34,1.58c2.59,1.05,4.85,2.55,6.78,4.49,1.93,1.94,3.45,4.27,4.57,6.99,1.12,2.72,1.68,5.75,1.68,9.08Zm-10.74,0c0-1.72-.28-3.27-.84-4.67-.56-1.39-1.32-2.59-2.29-3.59-.96-1-2.09-1.77-3.38-2.3-1.29-.53-2.66-.8-4.12-.8s-2.83,.27-4.12,.8c-1.29,.53-2.41,1.3-3.36,2.3-.95,1-1.7,2.2-2.25,3.59-.55,1.39-.82,2.95-.82,4.67,0,1.62,.27,3.11,.82,4.49,.55,1.38,1.29,2.58,2.25,3.59,.95,1.02,2.07,1.82,3.36,2.4s2.66,.88,4.12,.88,2.83-.27,4.12-.82,2.42-1.31,3.38-2.3c.96-.99,1.72-2.19,2.29-3.59,.56-1.41,.84-2.96,.84-4.65Z"/><path class="b" d="M136.95,111.04c0,3.12-.56,6.04-1.68,8.73-1.12,2.7-2.64,5.03-4.57,6.99-1.93,1.97-4.19,3.52-6.78,4.65-2.59,1.13-5.37,1.7-8.34,1.7s-5.71-.57-8.3-1.7c-2.59-1.13-4.86-2.68-6.8-4.65-1.94-1.97-3.47-4.3-4.59-6.99-1.12-2.7-1.68-5.61-1.68-8.73s.56-6.12,1.68-8.83c1.12-2.71,2.65-5.04,4.59-7.01,1.94-1.97,4.21-3.51,6.8-4.63,2.59-1.12,5.36-1.68,8.3-1.68s5.75,.53,8.34,1.58c2.59,1.05,4.85,2.55,6.78,4.49,1.93,1.94,3.45,4.27,4.57,6.99,1.12,2.72,1.68,5.75,1.68,9.08Zm-10.74,0c0-1.72-.28-3.27-.84-4.67-.56-1.39-1.32-2.59-2.29-3.59-.96-1-2.09-1.77-3.38-2.3-1.29-.53-2.66-.8-4.12-.8s-2.83,.27-4.12,.8c-1.29,.53-2.41,1.3-3.36,2.3-.95,1-1.7,2.2-2.25,3.59-.55,1.39-.82,2.95-.82,4.67,0,1.62,.27,3.11,.82,4.49,.55,1.38,1.29,2.58,2.25,3.59,.95,1.02,2.07,1.82,3.36,2.4s2.66,.88,4.12,.88,2.83-.27,4.12-.82,2.42-1.31,3.38-2.3c.96-.99,1.72-2.19,2.29-3.59,.56-1.41,.84-2.96,.84-4.65Z"/><path class="b" d="M149.79,132.33h-10.74v-58.48h10.74v36.88l15.9-20.16h12.27l-13.87,17.42,13.87,24.34h-12.27l-8.48-15.2-7.42,9.84v5.35Z"/><path class="b" d="M189.95,79.13c0,.99-.19,1.91-.57,2.77-.38,.86-.89,1.61-1.54,2.25-.65,.64-1.41,1.15-2.29,1.52-.87,.38-1.8,.57-2.79,.57s-1.92-.19-2.79-.57c-.87-.38-1.63-.88-2.27-1.52-.64-.64-1.15-1.39-1.52-2.25-.38-.86-.57-1.78-.57-2.77s.19-1.88,.57-2.75c.38-.87,.88-1.63,1.52-2.27s1.39-1.15,2.27-1.52c.87-.38,1.8-.57,2.79-.57s1.92,.19,2.79,.57c.87,.38,1.63,.89,2.29,1.52,.65,.64,1.17,1.39,1.54,2.27,.38,.87,.57,1.79,.57,2.75Zm-1.84,53.2h-10.74v-41.84h10.74v41.84Z"/><path class="b" d="M202.11,132.33h-10.66v-41.84h2.58l3.52,4.06c1.72-1.56,3.67-2.77,5.84-3.61,2.17-.85,4.45-1.27,6.82-1.27,2.55,0,4.96,.49,7.23,1.46s4.24,2.32,5.94,4.02c1.69,1.71,3.03,3.7,4,5.98,.98,2.28,1.46,4.71,1.46,7.29v23.91h-10.66v-23.91c0-1.09-.21-2.13-.62-3.11-.42-.98-.99-1.83-1.72-2.56-.73-.73-1.58-1.3-2.54-1.72-.96-.42-1.99-.62-3.09-.62s-2.17,.21-3.16,.62c-.99,.42-1.85,.99-2.58,1.72s-1.3,1.58-1.72,2.56c-.42,.98-.62,2.01-.62,3.11v23.91Z"/><path class="b" d="M242.27,82.88c0,1.15-.11,2.38-.33,3.69-.22,1.32-.57,2.62-1.05,3.91-.48,1.29-1.11,2.52-1.89,3.69s-1.72,2.16-2.81,2.97l-4.22-2.97c.7-.83,1.24-1.63,1.6-2.38,.36-.75,.65-1.51,.86-2.27-.78-.13-1.51-.39-2.19-.78-.68-.39-1.26-.88-1.74-1.46-.48-.59-.87-1.26-1.15-2.01-.29-.75-.43-1.55-.43-2.38,0-.88,.18-1.73,.53-2.54,.35-.81,.83-1.52,1.45-2.13s1.31-1.09,2.11-1.45c.79-.35,1.65-.53,2.56-.53s1.82,.18,2.64,.53,1.53,.83,2.13,1.45c.6,.61,1.07,1.32,1.43,2.13,.35,.81,.53,1.65,.53,2.54Z"/><path class="b" d="M290.12,109.95c0,3.1-.59,6.01-1.76,8.73-1.17,2.72-2.77,5.09-4.8,7.11-2.03,2.02-4.41,3.61-7.13,4.79-2.72,1.17-5.63,1.76-8.73,1.76s-6.01-.59-8.73-1.76c-2.72-1.17-5.09-2.77-7.11-4.79-2.02-2.02-3.61-4.39-4.79-7.11-1.17-2.72-1.76-5.63-1.76-8.73v-33.63h11.17v33.63c0,1.54,.29,2.98,.88,4.34,.59,1.35,1.39,2.54,2.4,3.55s2.21,1.82,3.57,2.4,2.82,.88,4.36,.88,2.99-.29,4.36-.88,2.56-1.39,3.57-2.4,1.82-2.2,2.4-3.55c.59-1.35,.88-2.8,.88-4.34v-33.63h11.21v33.63Z"/><path class="b" d="M306.26,132.33h-11.21v-56.02h22.42c2.06,0,4.04,.27,5.94,.8,1.9,.53,3.68,1.29,5.33,2.27,1.65,.98,3.16,2.15,4.53,3.52s2.54,2.88,3.52,4.55c.98,1.67,1.73,3.45,2.27,5.35,.53,1.9,.8,3.88,.8,5.94,0,3.07-.59,5.97-1.76,8.69-1.17,2.72-2.77,5.1-4.8,7.13s-4.41,3.63-7.13,4.8c-2.72,1.17-5.62,1.76-8.69,1.76h-11.21v11.21Zm0-44.8v22.42h11.21c1.54,0,2.98-.29,4.34-.88,1.35-.59,2.54-1.39,3.55-2.4s1.82-2.21,2.4-3.57,.88-2.82,.88-4.36-.29-2.99-.88-4.36-1.39-2.56-2.4-3.57-2.2-1.82-3.55-2.4c-1.35-.59-2.8-.88-4.34-.88h-11.21Z"/></g><g><path class="c" d="M50.47,49.44s10.49,4.6,32.47-18.63c21.98-23.23,30.71-14.12,34.79-8.48,4.08,5.63,4.09,17.82-3.11,27.56,1.01-10.21,1.43-18.83-.92-20.63,.91,4.22,0,17.33-5.99,20.26,1.04-10.35-3.24-16.28-6.27-17.72,3.03,5.51,1.89,18.06,1.89,18.06,0,0-21.01-1.74-39.13,17.37,20.57-10.71,40.25-12.45,51.01-7.54,1.03,7.17,2.62,13.4,2.62,13.4,0,0-28.27-7.08-52.36,14.52,24.26-12.35,44.45-10.4,57.92-7.84-4.1-22.23-4.25-22.9-4.25-22.9,0,0,20.06-32.87,2.91-46.18-17.16-13.31-31.18,0-42.27,15.25-11.09,15.25-22.31,23.5-29.31,23.51Z"/><path class="c" d="M61.67,37.95s-23.06-3.78-25.26,16.46,18.94,17.89,18.94,17.89l3.48,14.25s17.58-14.41,31.36-15.23c0,0-11.45-2.16-28.95,7.34-2.87-11-3.26-12.23-3.26-12.23,0,0-11.38,4.2-16.12-7.12-4.74-11.32,4.83-21.72,19.82-21.36Z"/></g></svg>